<?xml version="1.0" standalone="no"?>
<!DOCTYPE svg PUBLIC "-//W3C//DTD SVG 20010904//EN"
 "http://www.w3.org/TR/2001/REC-SVG-20010904/DTD/svg10.dtd">
<svg version="1.0" xmlns="http://www.w3.org/2000/svg"
 width="1200.000000pt" height="850.000000pt" viewBox="0 0 1200.000000 850.000000"
 preserveAspectRatio="xMidYMid meet">

<g transform="translate(0.000000,850.000000) scale(0.100000,-0.100000)"
fill="#000000" stroke="none">
<path d="M532 7335 c-71 -20 -100 -36 -144 -81 -46 -45 -74 -102 -88 -173 -13
-71 -13 -881 0 -952 22 -114 91 -202 190 -241 45 -18 75 -22 165 -22 132 0
198 21 263 85 78 78 102 159 102 345 l0 114 -85 0 -85 0 0 -117 c0 -134 -10
-179 -47 -224 -35 -41 -79 -59 -145 -59 -68 0 -130 30 -160 78 l-23 37 0 480
0 480 23 37 c30 48 92 78 160 78 66 0 110 -18 145 -59 36 -43 47 -89 47 -198
l0 -93 85 0 85 0 0 89 c0 160 -27 246 -102 320 -24 24 -65 50 -98 62 -72 28
-214 35 -288 14z"/>
<path d="M1604 7340 c-59 -12 -133 -52 -171 -92 -18 -18 -45 -60 -60 -93 l-28
-60 -3 -450 c-4 -479 0 -531 43 -615 50 -97 148 -155 278 -166 175 -15 313 48
375 171 40 80 44 138 40 610 l-3 450 -28 61 c-57 123 -155 183 -310 189 -50 2
-111 0 -133 -5z m189 -154 c42 -17 83 -66 97 -114 13 -50 13 -884 0 -934 -14
-48 -55 -97 -97 -114 -84 -35 -203 -4 -245 64 l-23 37 0 481 0 480 25 37 c14
21 43 46 65 57 47 24 130 26 178 6z"/>
<path d="M5894 7340 c-59 -12 -133 -52 -171 -92 -18 -18 -45 -60 -60 -93 l-28
-60 -3 -450 c-4 -479 0 -531 43 -615 50 -97 148 -155 278 -166 175 -15 313 48
375 171 40 80 44 138 40 610 l-3 450 -28 61 c-57 123 -155 183 -310 189 -50 2
-111 0 -133 -5z m189 -154 c42 -17 83 -66 97 -114 13 -50 13 -884 0 -934 -14
-48 -55 -97 -97 -114 -84 -35 -203 -4 -245 64 l-23 37 0 481 0 480 25 37 c14
21 43 46 65 57 47 24 130 26 178 6z"/>
<path d="M10154 7340 c-59 -12 -133 -52 -171 -92 -18 -18 -45 -60 -60 -93
l-28 -60 -3 -450 c-4 -479 0 -531 43 -615 50 -97 148 -155 278 -166 175 -15
313 48 375 171 40 80 44 138 40 610 l-3 450 -28 61 c-57 123 -155 183 -310
189 -50 2 -111 0 -133 -5z m189 -154 c42 -17 83 -66 97 -114 6 -23 10 -202 10
-467 0 -265 -4 -444 -10 -467 -14 -48 -55 -97 -97 -114 -84 -35 -203 -4 -245
64 l-23 37 0 481 0 480 25 37 c14 21 43 46 65 57 47 24 130 26 178 6z"/>
<path d="M2420 6605 l0 -735 80 0 80 0 0 588 c0 328 4 580 9 572 5 -8 98 -273
206 -587 l198 -573 93 0 94 0 0 735 0 735 -80 0 -80 0 -2 -524 -3 -524 -149
427 c-82 234 -164 470 -184 524 l-34 97 -114 0 -114 0 0 -735z"/>
<path d="M3480 7265 l0 -75 150 0 150 0 0 -660 0 -660 90 0 90 0 0 660 0 660
150 0 150 0 0 75 0 75 -390 0 -390 0 0 -75z"/>
<path d="M4550 6606 l0 -736 90 0 90 0 0 316 0 316 118 -3 c106 -4 121 -7 163
-31 77 -45 83 -67 90 -323 3 -128 10 -231 17 -247 11 -28 13 -28 101 -28 l89
0 -14 47 c-10 32 -14 101 -14 229 0 101 -5 206 -11 234 -16 75 -64 139 -126
170 -28 14 -52 28 -52 31 -1 4 11 10 25 13 40 10 109 81 135 139 22 47 24 66
24 207 0 189 -14 240 -84 310 -76 75 -113 83 -398 88 l-243 4 0 -736z m460
562 c71 -37 84 -69 88 -223 5 -157 -5 -202 -53 -244 -46 -40 -90 -51 -212 -51
l-103 0 0 270 0 270 118 0 c102 0 124 -3 162 -22z"/>
<path d="M6710 6605 l0 -735 320 0 320 0 0 75 0 75 -230 0 -230 0 0 660 0 660
-90 0 -90 0 0 -735z"/>
<path d="M7925 7318 c-3 -13 -71 -333 -150 -713 -80 -379 -147 -700 -150 -712
-5 -22 -3 -23 78 -23 l84 0 28 138 c15 75 30 143 33 150 3 9 54 12 208 12 112
0 204 -3 204 -7 0 -7 43 -216 55 -270 5 -22 10 -23 95 -23 89 0 90 0 85 23 -3
12 -70 333 -150 712 -79 380 -147 700 -150 713 -5 21 -9 22 -135 22 -126 0
-130 -1 -135 -22z m213 -575 c46 -214 86 -398 89 -410 l5 -23 -182 0 c-142 0
-181 3 -177 13 2 6 42 191 88 410 45 218 85 397 89 397 3 0 43 -174 88 -387z"/>
<path d="M8810 6605 l0 -737 248 4 c203 4 255 7 292 22 108 41 170 115 195
232 18 84 21 829 5 932 -21 126 -86 213 -188 254 -52 20 -77 22 -304 26 l-248
4 0 -737z m452 575 c44 -13 93 -66 107 -117 14 -51 15 -865 1 -915 -14 -48
-55 -97 -97 -114 -21 -9 -74 -14 -158 -14 l-125 0 0 585 0 585 118 0 c64 0
134 -5 154 -10z"/>
<path d="M10970 6606 l0 -736 90 0 90 0 0 316 0 316 118 -3 c106 -4 121 -7
163 -31 77 -45 83 -67 90 -323 3 -128 10 -231 17 -247 11 -28 13 -28 101 -28
l89 0 -14 47 c-10 32 -14 101 -14 229 0 101 -5 206 -11 234 -16 75 -64 139
-126 170 -28 14 -52 28 -52 31 -1 4 11 10 25 13 40 10 109 81 135 139 22 47
24 66 24 207 0 189 -14 240 -84 310 -76 75 -113 83 -398 88 l-243 4 0 -736z
m460 562 c71 -37 84 -69 88 -223 5 -157 -5 -202 -53 -244 -46 -40 -90 -51
-212 -51 l-103 0 0 270 0 270 118 0 c102 0 124 -3 162 -22z"/>
<path d="M5130 4085 l0 -737 248 4 c203 4 255 7 292 22 108 41 170 115 195
232 18 84 21 829 5 932 -21 126 -86 213 -188 254 -52 20 -77 22 -304 26 l-248
4 0 -737z m452 575 c44 -13 93 -66 107 -117 14 -51 15 -865 1 -915 -14 -48
-55 -97 -97 -114 -21 -9 -74 -14 -158 -14 l-125 0 0 585 0 585 118 0 c64 0
134 -5 154 -10z"/>
<path d="M6220 4085 l0 -735 330 0 330 0 0 75 0 75 -240 0 -240 0 0 260 0 260
195 0 195 0 0 75 0 75 -195 0 -195 0 0 250 0 250 240 0 240 0 0 75 0 75 -330
0 -330 0 0 -735z"/>
<path d="M3733 2296 c-125 -41 -192 -128 -213 -278 -20 -137 22 -265 119 -366
25 -26 101 -89 169 -141 194 -148 242 -216 242 -346 0 -131 -73 -200 -202
-192 -120 8 -164 62 -175 213 l-6 84 -80 0 -80 0 5 -107 c8 -168 58 -253 180
-309 57 -26 73 -28 173 -28 90 0 120 4 165 22 136 54 209 189 197 364 -10 150
-75 243 -275 396 -210 161 -257 228 -256 358 2 124 65 194 177 194 114 0 171
-59 183 -189 l7 -71 79 0 c63 0 80 3 85 16 10 27 -15 171 -38 216 -33 66 -96
125 -159 149 -70 27 -235 36 -297 15z"/>
<path d="M5834 2300 c-59 -12 -133 -52 -171 -92 -18 -18 -45 -60 -60 -93 l-28
-60 -3 -450 c-4 -479 0 -531 43 -615 50 -97 148 -155 278 -166 175 -15 313 48
375 171 40 80 44 138 40 610 l-3 450 -28 61 c-57 123 -155 183 -310 189 -50 2
-111 0 -133 -5z m189 -154 c42 -17 83 -66 97 -114 13 -50 13 -884 0 -934 -14
-48 -55 -97 -97 -114 -84 -35 -203 -4 -245 64 l-23 37 0 481 0 480 25 37 c14
21 43 46 65 57 47 24 130 26 178 6z"/>
<path d="M6882 2295 c-71 -20 -100 -36 -144 -81 -46 -45 -74 -102 -88 -173
-13 -71 -13 -881 0 -952 22 -114 91 -202 190 -241 45 -18 75 -22 165 -22 132
0 198 21 263 85 78 78 102 159 102 345 l0 114 -85 0 -85 0 0 -117 c0 -134 -10
-179 -47 -224 -35 -41 -79 -59 -145 -59 -68 0 -130 30 -160 78 l-23 37 0 480
0 480 23 37 c30 48 92 78 160 78 66 0 110 -18 145 -59 36 -43 47 -89 47 -198
l0 -93 85 0 85 0 0 89 c0 160 -27 246 -102 320 -24 24 -65 50 -98 62 -72 28
-214 35 -288 14z"/>
<path d="M4510 2225 l0 -75 150 0 150 0 0 -660 0 -660 90 0 90 0 0 660 0 660
150 0 150 0 0 75 0 75 -390 0 -390 0 0 -75z"/>
<path d="M7700 1565 l0 -735 90 0 90 0 0 248 0 247 46 68 c25 38 49 66 52 62
4 -4 82 -145 174 -313 l166 -307 91 -3 c50 -1 91 0 91 3 0 4 -93 182 -206 396
-118 224 -204 397 -201 407 2 9 92 161 200 337 l196 320 -81 3 c-45 2 -86 1
-92 -1 -6 -3 -106 -161 -221 -352 l-210 -347 -3 351 -2 351 -90 0 -90 0 0
-735z"/>
</g>
</svg>
